Oswald--300.ufo
<glyph name="percent" format="1">
  <advance width="1499"/>
  <unicode hex="0025"/>
  <outline>
    <contour>
      <point x="333" y="942" type="curve" smooth="yes"/>
      <point x="243" y="942"/>
      <point x="219" y="1025"/>
      <point x="219" y="1138" type="curve" smooth="yes"/>
      <point x="219" y="1381" type="line" smooth="yes"/>
      <point x="219" y="1491"/>
      <point x="240" y="1573"/>
      <point x="333" y="1573" type="curve" smooth="yes"/>
      <point x="425" y="1573"/>
      <point x="448" y="1493"/>
      <point x="448" y="1383" type="curve" smooth="yes"/>
      <point x="448" y="1139" type="line" smooth="yes"/>
      <point x="448" y="1026"/>
      <point x="425" y="942"/>
    </contour>
    <contour>
      <point x="333" y="827" type="curve" smooth="yes"/>
      <point x="518" y="827"/>
      <point x="584" y="951"/>
      <point x="584" y="1142" type="curve" smooth="yes"/>
      <point x="584" y="1381" type="line" smooth="yes"/>
      <point x="584" y="1572"/>
      <point x="517" y="1689"/>
      <point x="333" y="1689" type="curve" smooth="yes"/>
      <point x="149" y="1689"/>
      <point x="82" y="1568"/>
      <point x="82" y="1375" type="curve" smooth="yes"/>
      <point x="82" y="1145" type="line" smooth="yes"/>
      <point x="82" y="956"/>
      <point x="149" y="827"/>
    </contour>
    <contour>
      <point x="1166" y="103" type="curve" smooth="yes"/>
      <point x="1075" y="103"/>
      <point x="1052" y="187"/>
      <point x="1052" y="300" type="curve" smooth="yes"/>
      <point x="1052" y="543" type="line" smooth="yes"/>
      <point x="1052" y="653"/>
      <point x="1073" y="735"/>
      <point x="1166" y="735" type="curve" smooth="yes"/>
      <point x="1258" y="735"/>
      <point x="1280" y="655"/>
      <point x="1280" y="544" type="curve" smooth="yes"/>
      <point x="1280" y="301" type="line" smooth="yes"/>
      <point x="1280" y="188"/>
      <point x="1257" y="103"/>
    </contour>
    <contour>
      <point x="1166" y="-12" type="curve" smooth="yes"/>
      <point x="1350" y="-12"/>
      <point x="1417" y="113"/>
      <point x="1417" y="303" type="curve" smooth="yes"/>
      <point x="1417" y="543" type="line" smooth="yes"/>
      <point x="1417" y="734"/>
      <point x="1349" y="851"/>
      <point x="1166" y="851" type="curve" smooth="yes"/>
      <point x="981" y="851"/>
      <point x="915" y="730"/>
      <point x="915" y="537" type="curve" smooth="yes"/>
      <point x="915" y="307" type="line" smooth="yes"/>
      <point x="915" y="117"/>
      <point x="981" y="-12"/>
    </contour>
    <contour>
      <point x="422" y="0" type="line"/>
      <point x="556" y="0" type="line"/>
      <point x="1080" y="1673" type="line"/>
      <point x="947" y="1673" type="line"/>
    </contour>
  </outline>
</glyph>
<glyph name="parenright" format="1">
  <advance width="526"/>
  <unicode hex="0029"/>
  <outline>
    <contour>
      <point x="62" y="-338" type="line"/>
      <point x="403" y="-318"/>
      <point x="409" y="136"/>
      <point x="409" y="668" type="curve" smooth="yes"/>
      <point x="409" y="1201"/>
      <point x="403" y="1661"/>
      <point x="62" y="1671" type="curve"/>
      <point x="62" y="1567" type="line"/>
      <point x="266" y="1547"/>
      <point x="263" y="1139"/>
      <point x="263" y="668" type="curve" smooth="yes"/>
      <point x="263" y="199"/>
      <point x="266" y="-214"/>
      <point x="62" y="-234" type="curve"/>
    </contour>
  </outline>
</glyph>
<glyph name="asterisk" format="1">
  <advance width="762"/>
  <unicode hex="002A"/>
  <outline>
    <contour>
      <point x="241" y="990" type="line"/>
      <point x="396" y="1250" type="line"/>
      <point x="551" y="990" type="line"/>
      <point x="643" y="1045" type="line"/>
      <point x="464" y="1286" type="line"/>
      <point x="719" y="1388" type="line"/>
      <point x="682" y="1484" type="line"/>
      <point x="437" y="1361" type="line"/>
      <point x="456" y="1657" type="line"/>
      <point x="340" y="1657" type="line"/>
      <point x="357" y="1361" type="line"/>
      <point x="110" y="1484" type="line"/>
      <point x="72" y="1388" type="line"/>
      <point x="328" y="1286" type="line"/>
      <point x="150" y="1047" type="line"/>
    </contour>
  </outline>
</glyph>
<glyph name="zero" format="1">
  <advance width="1008"/>
  <unicode hex="0030"/>
  <outline>
    <contour>
      <point x="504" y="100" type="curve" smooth="yes"/>
      <point x="316" y="100"/>
      <point x="261" y="258"/>
      <point x="261" y="456" type="curve" smooth="yes"/>
      <point x="261" y="1201" type="line" smooth="yes"/>
      <point x="261" y="1402"/>
      <point x="314" y="1557"/>
      <point x="504" y="1557" type="curve" smooth="yes"/>
      <point x="695" y="1557"/>
      <point x="747" y="1402"/>
      <point x="747" y="1201" type="curve" smooth="yes"/>
      <point x="747" y="456" type="line" smooth="yes"/>
      <point x="747" y="258"/>
      <point x="694" y="100"/>
    </contour>
    <contour>
      <point x="504" y="-21" type="curve" smooth="yes"/>
      <point x="801" y="-21"/>
      <point x="900" y="183"/>
      <point x="900" y="469" type="curve" smooth="yes"/>
      <point x="900" y="1189" type="line" smooth="yes"/>
      <point x="900" y="1477"/>
      <point x="795" y="1676"/>
      <point x="504" y="1676" type="curve" smooth="yes"/>
      <point x="213" y="1676"/>
      <point x="109" y="1477"/>
      <point x="109" y="1189" type="curve" smooth="yes"/>
      <point x="109" y="469" type="line" smooth="yes"/>
      <point x="109" y="185"/>
      <point x="209" y="-21"/>
    </contour>
  </outline>
</glyph>
<glyph name="semicolon" format="1">
  <advance width="426"/>
  <unicode hex="003B"/>
  <outline>
    <contour>
      <point x="162" y="-57" type="line"/>
      <point x="273" y="-26"/>
      <point x="307" y="44"/>
      <point x="307" y="178" type="curve" smooth="yes"/>
      <point x="307" y="373" type="line"/>
      <point x="141" y="373" type="line"/>
      <point x="141" y="162" type="line"/>
      <point x="229" y="162" type="line"/>
      <point x="229" y="80"/>
      <point x="208" y="41"/>
      <point x="131" y="9" type="curve"/>
    </contour>
    <contour>
      <point x="141" y="903" type="line"/>
      <point x="299" y="903" type="line"/>
      <point x="299" y="1127" type="line"/>
      <point x="141" y="1127" type="line"/>
    </contour>
  </outline>
</glyph>
<glyph name="greater" format="1">
  <advance width="744"/>
  <unicode hex="003E"/>
  <outline>
    <contour>
      <point x="118" y="126" type="line"/>
      <point x="686" y="555" type="line"/>
      <point x="686" y="703" type="line"/>
      <point x="118" y="1122" type="line"/>
      <point x="118" y="967" type="line"/>
      <point x="570" y="630" type="line"/>
      <point x="118" y="281" type="line"/>
    </contour>
  </outline>
</glyph>
<glyph name="B" format="1">
  <advance width="1027"/>
  <unicode hex="0042"/>
  <outline>
    <contour>
      <point x="144" y="0" type="line"/>
      <point x="555" y="0" type="line" smooth="yes"/>
      <point x="866" y="0"/>
      <point x="946" y="216"/>
      <point x="946" y="480" type="curve" smooth="yes"/>
      <point x="946" y="660"/>
      <point x="891" y="840"/>
      <point x="696" y="894" type="curve"/>
      <point x="857" y="927"/>
      <point x="907" y="1085"/>
      <point x="907" y="1245" type="curve" smooth="yes"/>
      <point x="907" y="1495"/>
      <point x="803" y="1658"/>
      <point x="500" y="1658" type="curve" smooth="yes"/>
      <point x="144" y="1658" type="line"/>
    </contour>
    <contour>
      <point x="301" y="117" type="line"/>
      <point x="301" y="823" type="line"/>
      <point x="528" y="823" type="line" smooth="yes"/>
      <point x="729" y="823"/>
      <point x="795" y="679"/>
      <point x="795" y="479" type="curve" smooth="yes"/>
      <point x="795" y="231"/>
      <point x="740" y="117"/>
      <point x="526" y="117" type="curve" smooth="yes"/>
    </contour>
    <contour>
      <point x="301" y="944" type="line"/>
      <point x="301" y="1538" type="line"/>
      <point x="450" y="1538" type="line" smooth="yes"/>
      <point x="700" y="1538"/>
      <point x="766" y="1445"/>
      <point x="766" y="1245" type="curve" smooth="yes"/>
      <point x="766" y="1064"/>
      <point x="715" y="944"/>
      <point x="527" y="944" type="curve" smooth="yes"/>
    </contour>
  </outline>
</glyph>
<glyph name="F" format="1">
  <advance width="790"/>
  <unicode hex="0046"/>
  <outline>
    <contour>
      <point x="144" y="0" type="line"/>
      <point x="301" y="0" type="line"/>
      <point x="301" y="802" type="line"/>
      <point x="668" y="802" type="line"/>
      <point x="668" y="918" type="line"/>
      <point x="301" y="918" type="line"/>
      <point x="301" y="1541" type="line"/>
      <point x="742" y="1541" type="line"/>
      <point x="742" y="1658" type="line"/>
      <point x="144" y="1658" type="line"/>
    </contour>
  </outline>
</glyph>
<glyph name="O" format="1">
  <advance width="1074"/>
  <unicode hex="004F"/>
  <outline>
    <contour>
      <point x="537" y="105" type="curve" smooth="yes"/>
      <point x="318" y="105"/>
      <point x="269" y="246"/>
      <point x="269" y="456" type="curve" smooth="yes"/>
      <point x="269" y="1206" type="line" smooth="yes"/>
      <point x="269" y="1416"/>
      <point x="318" y="1552"/>
      <point x="537" y="1552" type="curve" smooth="yes"/>
      <point x="756" y="1552"/>
      <point x="805" y="1416"/>
      <point x="805" y="1206" type="curve" smooth="yes"/>
      <point x="805" y="456" type="line" smooth="yes"/>
      <point x="805" y="246"/>
      <point x="756" y="105"/>
    </contour>
    <contour>
      <point x="537" y="-21" type="curve" smooth="yes"/>
      <point x="865" y="-21"/>
      <point x="963" y="189"/>
      <point x="963" y="488" type="curve" smooth="yes"/>
      <point x="963" y="1178" type="line" smooth="yes"/>
      <point x="963" y="1476"/>
      <point x="859" y="1676"/>
      <point x="537" y="1676" type="curve" smooth="yes"/>
      <point x="215" y="1676"/>
      <point x="111" y="1478"/>
      <point x="111" y="1178" type="curve" smooth="yes"/>
      <point x="111" y="490" type="line" smooth="yes"/>
      <point x="111" y="189"/>
      <point x="208" y="-21"/>
    </contour>
  </outline>
</glyph>
<glyph name="P" format="1">
  <advance width="990"/>
  <unicode hex="0050"/>
  <outline>
    <contour>
      <point x="144" y="0" type="line"/>
      <point x="301" y="0" type="line"/>
      <point x="301" y="785" type="line"/>
      <point x="544" y="785" type="line" smooth="yes"/>
      <point x="830" y="785"/>
      <point x="937" y="982"/>
      <point x="937" y="1219" type="curve" smooth="yes"/>
      <point x="937" y="1482"/>
      <point x="840" y="1658"/>
      <point x="542" y="1658" type="curve" smooth="yes"/>
      <point x="144" y="1658" type="line"/>
    </contour>
    <contour>
      <point x="301" y="901" type="line"/>
      <point x="301" y="1542" type="line"/>
      <point x="502" y="1542" type="line" smooth="yes"/>
      <point x="722" y="1542"/>
      <point x="784" y="1474"/>
      <point x="784" y="1218" type="curve" smooth="yes"/>
      <point x="784" y="980"/>
      <point x="700" y="901"/>
      <point x="500" y="901" type="curve" smooth="yes"/>
    </contour>
  </outline>
</glyph>
<glyph name="R" format="1">
  <advance width="1049"/>
  <unicode hex="0052"/>
  <outline>
    <contour>
      <point x="144" y="0" type="line"/>
      <point x="301" y="0" type="line"/>
      <point x="301" y="815" type="line"/>
      <point x="561" y="815" type="line"/>
      <point x="804" y="0" type="line"/>
      <point x="958" y="0" type="line"/>
      <point x="701" y="848" type="line"/>
      <point x="882" y="886"/>
      <point x="932" y="1049"/>
      <point x="932" y="1239" type="curve" smooth="yes"/>
      <point x="932" y="1499"/>
      <point x="829" y="1658"/>
      <point x="521" y="1658" type="curve" smooth="yes"/>
      <point x="144" y="1658" type="line"/>
    </contour>
    <contour>
      <point x="301" y="930" type="line"/>
      <point x="301" y="1541" type="line"/>
      <point x="517" y="1541" type="line" smooth="yes"/>
      <point x="726" y="1541"/>
      <point x="780" y="1443"/>
      <point x="780" y="1239" type="curve" smooth="yes"/>
      <point x="780" y="1031"/>
      <point x="718" y="930"/>
      <point x="512" y="930" type="curve" smooth="yes"/>
    </contour>
  </outline>
</glyph>
<glyph name="W" format="1">
  <advance width="1464"/>
  <unicode hex="0057"/>
  <outline>
    <contour>
      <point x="353" y="0" type="line"/>
      <point x="479" y="0" type="line"/>
      <point x="740" y="1369" type="line"/>
      <point x="1003" y="0" type="line"/>
      <point x="1125" y="0" type="line"/>
      <point x="1393" y="1658" type="line"/>
      <point x="1261" y="1658" type="line"/>
      <point x="1058" y="310" type="line"/>
      <point x="803" y="1633" type="line"/>
      <point x="674" y="1633" type="line"/>
      <point x="423" y="312" type="line"/>
      <point x="205" y="1658" type="line"/>
      <point x="71" y="1657" type="line"/>
    </contour>
  </outline>
</glyph>
<glyph name="grave" format="1">
  <advance width="482"/>
  <unicode hex="0060"/>
  <outline>
    <contour>
      <point x="296" y="1258" type="line"/>
      <point x="373" y="1258" type="line"/>
      <point x="259" y="1658" type="line"/>
      <point x="108" y="1658" type="line"/>
    </contour>
  </outline>
</glyph>
<glyph name="o" format="1">
  <advance width="816"/>
  <unicode hex="006F"/>
  <outline>
    <contour>
      <point x="408" y="94" type="curve" smooth="yes"/>
      <point x="253" y="94"/>
      <point x="242" y="228"/>
      <point x="242" y="420" type="curve" smooth="yes"/>
      <point x="242" y="764" type="line" smooth="yes"/>
      <point x="242" y="956"/>
      <point x="253" y="1090"/>
      <point x="408" y="1090" type="curve" smooth="yes"/>
      <point x="562" y="1090"/>
      <point x="573" y="956"/>
      <point x="573" y="764" type="curve" smooth="yes"/>
      <point x="573" y="420" type="line" smooth="yes"/>
      <point x="573" y="228"/>
      <point x="562" y="94"/>
    </contour>
    <contour>
      <point x="408" y="-19" type="curve" smooth="yes"/>
      <point x="654" y="-19"/>
      <point x="724" y="142"/>
      <point x="724" y="428" type="curve" smooth="yes"/>
      <point x="724" y="756" type="line" smooth="yes"/>
      <point x="724" y="1042"/>
      <point x="654" y="1202"/>
      <point x="408" y="1202" type="curve" smooth="yes"/>
      <point x="162" y="1202"/>
      <point x="92" y="1040"/>
      <point x="92" y="756" type="curve" smooth="yes"/>
      <point x="92" y="428" type="line" smooth="yes"/>
      <point x="92" y="142"/>
      <point x="162" y="-19"/>
    </contour>
  </outline>
</glyph>
<glyph name="p" format="1">
  <advance width="855"/>
  <unicode hex="0070"/>
  <outline>
    <contour>
      <point x="115" y="-390" type="line"/>
      <point x="265" y="-390" type="line"/>
      <point x="265" y="94" type="line"/>
      <point x="310" y="41"/>
      <point x="380" y="-19"/>
      <point x="476" y="-19" type="curve" smooth="yes"/>
      <point x="697" y="-19"/>
      <point x="760" y="179"/>
      <point x="760" y="480" type="curve" smooth="yes"/>
      <point x="760" y="730" type="line" smooth="yes"/>
      <point x="760" y="968"/>
      <point x="721" y="1202"/>
      <point x="492" y="1202" type="curve" smooth="yes"/>
      <point x="385" y="1202"/>
      <point x="312" y="1143"/>
      <point x="265" y="1085" type="curve"/>
      <point x="265" y="1184" type="line"/>
      <point x="115" y="1184" type="line"/>
    </contour>
    <contour>
      <point x="452" y="100" type="curve" smooth="yes"/>
      <point x="373" y="100"/>
      <point x="309" y="140"/>
      <point x="265" y="186" type="curve"/>
      <point x="265" y="993" type="line"/>
      <point x="306" y="1033"/>
      <point x="371" y="1084"/>
      <point x="449" y="1084" type="curve" smooth="yes"/>
      <point x="587" y="1084"/>
      <point x="610" y="962"/>
      <point x="610" y="730" type="curve" smooth="yes"/>
      <point x="610" y="478" type="line" smooth="yes"/>
      <point x="610" y="232"/>
      <point x="586" y="100"/>
    </contour>
  </outline>
</glyph>
<glyph name="t" format="1">
  <advance width="573"/>
  <unicode hex="0074"/>
  <outline>
    <contour>
      <point x="395" y="-15" type="curve" smooth="yes"/>
      <point x="437" y="-15"/>
      <point x="480" y="-10"/>
      <point x="521" y="-2" type="curve"/>
      <point x="521" y="111" type="line"/>
      <point x="494" y="106"/>
      <point x="460" y="103"/>
      <point x="437" y="103" type="curve" smooth="yes"/>
      <point x="349" y="103"/>
      <point x="331" y="145"/>
      <point x="331" y="260" type="curve" smooth="yes"/>
      <point x="331" y="1084" type="line"/>
      <point x="528" y="1084" type="line"/>
      <point x="528" y="1184" type="line"/>
      <point x="331" y="1184" type="line"/>
      <point x="331" y="1550" type="line"/>
      <point x="181" y="1550" type="line"/>
      <point x="181" y="1184" type="line"/>
      <point x="38" y="1184" type="line"/>
      <point x="38" y="1084" type="line"/>
      <point x="181" y="1084" type="line"/>
      <point x="181" y="246" type="line" smooth="yes"/>
      <point x="182" y="92"/>
      <point x="222" y="-15"/>
    </contour>
  </outline>
</glyph>
<glyph name="braceright" format="1">
  <advance width="552"/>
  <unicode hex="007D"/>
  <outline>
    <contour>
      <point x="64" y="-338" type="line"/>
      <point x="341" y="-338"/>
      <point x="354" y="-290"/>
      <point x="354" y="76" type="curve" smooth="yes"/>
      <point x="354" y="340" type="line" smooth="yes"/>
      <point x="354" y="564"/>
      <point x="373" y="615"/>
      <point x="473" y="615" type="curve"/>
      <point x="473" y="731" type="line"/>
      <point x="373" y="731"/>
      <point x="354" y="782"/>
      <point x="354" y="1006" type="curve" smooth="yes"/>
      <point x="354" y="1261" type="line" smooth="yes"/>
      <point x="354" y="1626"/>
      <point x="341" y="1674"/>
      <point x="64" y="1674" type="curve"/>
      <point x="64" y="1562" type="line"/>
      <point x="201" y="1562"/>
      <point x="201" y="1541"/>
      <point x="201" y="1261" type="curve" smooth="yes"/>
      <point x="201" y="974" type="line" smooth="yes"/>
      <point x="201" y="769"/>
      <point x="239" y="697"/>
      <point x="322" y="673" type="curve"/>
      <point x="239" y="649"/>
      <point x="201" y="577"/>
      <point x="201" y="372" type="curve" smooth="yes"/>
      <point x="201" y="76" type="line" smooth="yes"/>
      <point x="201" y="-205"/>
      <point x="201" y="-225"/>
      <point x="64" y="-225" type="curve"/>
    </contour>
  </outline>
</glyph>
<glyph name="asciitilde" format="1">
  <advance width="833"/>
  <unicode hex="007E"/>
  <outline>
    <contour>
      <point x="557" y="767" type="curve" smooth="yes"/>
      <point x="618" y="767"/>
      <point x="695" y="831"/>
      <point x="754" y="893" type="curve"/>
      <point x="700" y="962" type="line"/>
      <point x="640" y="915"/>
      <point x="603" y="886"/>
      <point x="563" y="886" type="curve" smooth="yes"/>
      <point x="491" y="886"/>
      <point x="369" y="998"/>
      <point x="284" y="998" type="curve" smooth="yes"/>
      <point x="223" y="998"/>
      <point x="140" y="936"/>
      <point x="79" y="869" type="curve"/>
      <point x="133" y="799" type="line"/>
      <point x="192" y="852"/>
      <point x="242" y="881"/>
      <point x="274" y="881" type="curve" smooth="yes"/>
      <point x="347" y="881"/>
      <point x="469" y="767"/>
    </contour>
  </outline>
</glyph>
<glyph name="brokenbar" format="1">
  <advance width="414"/>
  <unicode hex="00A6"/>
  <outline>
    <contour>
      <point x="144" y="-348" type="line"/>
      <point x="270" y="-348" type="line"/>
      <point x="270" y="502" type="line"/>
      <point x="144" y="502" type="line"/>
    </contour>
    <contour>
      <point x="144" y="808" type="line"/>
      <point x="270" y="808" type="line"/>
      <point x="270" y="1658" type="line"/>
      <point x="144" y="1658" type="line"/>
    </contour>
  </outline>
</glyph>
<glyph name="copyright" format="1">
  <advance width="1765"/>
  <unicode hex="00A9"/>
  <outline>
    <contour>
      <point x="867" y="249" type="curve" smooth="yes"/>
      <point x="1153" y="249"/>
      <point x="1198" y="409"/>
      <point x="1198" y="665" type="curve" smooth="yes"/>
      <point x="1198" y="717" type="line"/>
      <point x="1052" y="717" type="line"/>
      <point x="1052" y="658" type="line" smooth="yes"/>
      <point x="1052" y="448"/>
      <point x="1026" y="367"/>
      <point x="870" y="367" type="curve" smooth="yes"/>
      <point x="721" y="367"/>
      <point x="677" y="453"/>
      <point x="677" y="709" type="curve" smooth="yes"/>
      <point x="677" y="1000" type="line" smooth="yes"/>
      <point x="677" y="1271"/>
      <point x="712" y="1359"/>
      <point x="869" y="1359" type="curve" smooth="yes"/>
      <point x="999" y="1359"/>
      <point x="1052" y="1310"/>
      <point x="1052" y="1085" type="curve" smooth="yes"/>
      <point x="1052" y="1030" type="line"/>
      <point x="1198" y="1030" type="line"/>
      <point x="1198" y="1086" type="line" smooth="yes"/>
      <point x="1198" y="1329"/>
      <point x="1146" y="1477"/>
      <point x="867" y="1477" type="curve" smooth="yes"/>
      <point x="588" y="1477"/>
      <point x="517" y="1329"/>
      <point x="517" y="974" type="curve" smooth="yes"/>
      <point x="517" y="741" type="line" smooth="yes"/>
      <point x="517" y="453"/>
      <point x="562" y="249"/>
    </contour>
    <contour>
      <point x="886" y="50" type="curve" smooth="yes"/>
      <point x="371" y="50"/>
      <point x="146" y="445"/>
      <point x="146" y="845" type="curve" smooth="yes"/>
      <point x="146" y="1245"/>
      <point x="371" y="1636"/>
      <point x="886" y="1636" type="curve" smooth="yes"/>
      <point x="1400" y="1636"/>
      <point x="1626" y="1245"/>
      <point x="1626" y="845" type="curve" smooth="yes"/>
      <point x="1626" y="445"/>
      <point x="1400" y="50"/>
    </contour>
    <contour>
      <point x="883" y="-22" type="curve" smooth="yes"/>
      <point x="1469" y="-22"/>
      <point x="1705" y="426"/>
      <point x="1705" y="843" type="curve" smooth="yes"/>
      <point x="1705" y="1260"/>
      <point x="1467" y="1708"/>
      <point x="883" y="1708" type="curve" smooth="yes"/>
      <point x="298" y="1708"/>
      <point x="60" y="1260"/>
      <point x="60" y="843" type="curve" smooth="yes"/>
      <point x="60" y="427"/>
      <point x="298" y="-22"/>
    </contour>
  </outline>
</glyph>
<glyph name="logicalnot" format="1">
  <advance width="745"/>
  <unicode hex="00AC"/>
  <outline>
    <contour>
      <point x="595" y="561" type="line"/>
      <point x="686" y="561" type="line"/>
      <point x="686" y="909" type="line"/>
      <point x="84" y="909" type="line"/>
      <point x="84" y="790" type="line"/>
      <point x="595" y="790" type="line"/>
    </contour>
  </outline>
</glyph>
<glyph name="twosuperior" format="1">
  <advance width="848"/>
  <unicode hex="00B2"/>
  <outline>
    <contour>
      <point x="169" y="687" type="line"/>
      <point x="669" y="687" type="line"/>
      <point x="669" y="790" type="line"/>
      <point x="309" y="790" type="line"/>
      <point x="574" y="1188" type="line" smooth="yes"/>
      <point x="647" y="1298"/>
      <point x="701" y="1383"/>
      <point x="701" y="1519" type="curve" smooth="yes"/>
      <point x="701" y="1699"/>
      <point x="609" y="1799"/>
      <point x="441" y="1799" type="curve" smooth="yes"/>
      <point x="254" y="1799"/>
      <point x="177" y="1688"/>
      <point x="177" y="1488" type="curve" smooth="yes"/>
      <point x="177" y="1459" type="line"/>
      <point x="292" y="1459" type="line"/>
      <point x="292" y="1533"/>
      <point x="329" y="1699"/>
      <point x="446" y="1699" type="curve" smooth="yes"/>
      <point x="542" y="1699"/>
      <point x="579" y="1631"/>
      <point x="579" y="1515" type="curve" smooth="yes"/>
      <point x="579" y="1385"/>
      <point x="522" y="1322"/>
      <point x="457" y="1221" type="curve" smooth="yes"/>
      <point x="169" y="777" type="line"/>
    </contour>
  </outline>
</glyph>
<glyph name="ordmasculine" format="1">
  <advance width="842"/>
  <unicode hex="00BA"/>
  <outline>
    <contour>
      <point x="421" y="694" type="curve" smooth="yes"/>
      <point x="642" y="694"/>
      <point x="709" y="831"/>
      <point x="709" y="1025" type="curve" smooth="yes"/>
      <point x="709" y="1352" type="line" smooth="yes"/>
      <point x="709" y="1546"/>
      <point x="636" y="1681"/>
      <point x="421" y="1681" type="curve" smooth="yes"/>
      <point x="201" y="1681"/>
      <point x="133" y="1551"/>
      <point x="133" y="1352" type="curve" smooth="yes"/>
      <point x="133" y="1025" type="line" smooth="yes"/>
      <point x="133" y="826"/>
      <point x="196" y="694"/>
    </contour>
    <contour>
      <point x="419" y="798" type="curve" smooth="yes"/>
      <point x="281" y="798"/>
      <point x="255" y="902"/>
      <point x="255" y="1035" type="curve" smooth="yes"/>
      <point x="255" y="1342" type="line" smooth="yes"/>
      <point x="255" y="1474"/>
      <point x="283" y="1578"/>
      <point x="419" y="1578" type="curve" smooth="yes"/>
      <point x="558" y="1578"/>
      <point x="582" y="1475"/>
      <point x="582" y="1342" type="curve" smooth="yes"/>
      <point x="582" y="1035" type="line" smooth="yes"/>
      <point x="582" y="901"/>
      <point x="558" y="798"/>
    </contour>
  </outline>
</glyph>
<glyph name="onehalf" format="1">
  <advance width="1583"/>
  <unicode hex="00BD"/>
  <outline>
    <contour>
      <point x="1012" y="0" type="line"/>
      <point x="1461" y="0" type="line"/>
      <point x="1461" y="89" type="line"/>
      <point x="1139" y="89" type="line"/>
      <point x="1155" y="110"/>
      <point x="1305" y="322"/>
      <point x="1326" y="346" type="curve"/>
      <point x="1408" y="452"/>
      <point x="1478" y="553"/>
      <point x="1478" y="673" type="curve" smooth="yes"/>
      <point x="1478" y="829"/>
      <point x="1391" y="915"/>
      <point x="1247" y="915" type="curve" smooth="yes"/>
      <point x="1094" y="915"/>
      <point x="1016" y="833"/>
      <point x="1013" y="671" type="curve" smooth="yes"/>
      <point x="1013" y="668"/>
      <point x="1013" y="658"/>
      <point x="1013" y="656" type="curve"/>
      <point x="1130" y="656" type="line"/>
      <point x="1130" y="761"/>
      <point x="1153" y="826"/>
      <point x="1247" y="826" type="curve" smooth="yes"/>
      <point x="1331" y="826"/>
      <point x="1355" y="763"/>
      <point x="1355" y="670" type="curve" smooth="yes"/>
      <point x="1355" y="557"/>
      <point x="1294" y="493"/>
      <point x="1238" y="412" type="curve"/>
      <point x="1012" y="88" type="line"/>
    </contour>
    <contour>
      <point x="264" y="668" type="line"/>
      <point x="382" y="668" type="line"/>
      <point x="382" y="1658" type="line"/>
      <point x="323" y="1658" type="line"/>
      <point x="286" y="1614"/>
      <point x="193" y="1551"/>
      <point x="122" y="1516" type="curve"/>
      <point x="122" y="1424" type="line"/>
      <point x="264" y="1476" type="line"/>
    </contour>
    <contour>
      <point x="402" y="0" type="line"/>
      <point x="532" y="0" type="line"/>
      <point x="1104" y="1658" type="line"/>
      <point x="974" y="1658" type="line"/>
    </contour>
  </outline>
</glyph>
<glyph name="ae" format="1">
  <advance width="1269"/>
  <unicode hex="00E6"/>
  <outline>
    <contour>
      <point x="321" y="-19" type="curve" smooth="yes"/>
      <point x="446" y="-25"/>
      <point x="571" y="50"/>
      <point x="622" y="222" type="curve"/>
      <point x="644" y="54"/>
      <point x="753" y="-19"/>
      <point x="883" y="-19" type="curve" smooth="yes"/>
      <point x="1110" y="-19"/>
      <point x="1189" y="122"/>
      <point x="1189" y="336" type="curve" smooth="yes"/>
      <point x="1189" y="405" type="line"/>
      <point x="1040" y="405" type="line"/>
      <point x="1040" y="335" type="line" smooth="yes"/>
      <point x="1040" y="149"/>
      <point x="971" y="101"/>
      <point x="884" y="101" type="curve" smooth="yes"/>
      <point x="748" y="101"/>
      <point x="716" y="245"/>
      <point x="716" y="482" type="curve" smooth="yes"/>
      <point x="716" y="601" type="line"/>
      <point x="913" y="661" type="line" smooth="yes"/>
      <point x="1064" y="702"/>
      <point x="1180" y="759"/>
      <point x="1180" y="898" type="curve" smooth="yes"/>
      <point x="1180" y="1077"/>
      <point x="1080" y="1202"/>
      <point x="886" y="1202" type="curve" smooth="yes"/>
      <point x="776" y="1202"/>
      <point x="676" y="1150"/>
      <point x="640" y="1026" type="curve"/>
      <point x="619" y="1141"/>
      <point x="532" y="1202"/>
      <point x="415" y="1202" type="curve" smooth="yes"/>
      <point x="216" y="1202"/>
      <point x="100" y="1086"/>
      <point x="99" y="871" type="curve"/>
      <point x="245" y="869" type="line"/>
      <point x="245" y="1027"/>
      <point x="316" y="1086"/>
      <point x="414" y="1086" type="curve" smooth="yes"/>
      <point x="524" y="1086"/>
      <point x="565" y="1011"/>
      <point x="565" y="803" type="curve" smooth="yes"/>
      <point x="565" y="665" type="line"/>
      <point x="394" y="610" type="line" smooth="yes"/>
      <point x="151" y="529"/>
      <point x="84" y="417"/>
      <point x="84" y="247" type="curve" smooth="yes"/>
      <point x="84" y="99"/>
      <point x="180" y="-13"/>
    </contour>
    <contour>
      <point x="371" y="99" type="curve" smooth="yes"/>
      <point x="305" y="99"/>
      <point x="235" y="147"/>
      <point x="233" y="271" type="curve" smooth="yes"/>
      <point x="232" y="385"/>
      <point x="265" y="453"/>
      <point x="436" y="523" type="curve" smooth="yes"/>
      <point x="450" y="528"/>
      <point x="551" y="568"/>
      <point x="565" y="572" type="curve"/>
      <point x="565" y="440" type="line" smooth="yes"/>
      <point x="565" y="186"/>
      <point x="466" y="99"/>
    </contour>
    <contour>
      <point x="716" y="691" type="line"/>
      <point x="716" y="797" type="line" smooth="yes"/>
      <point x="716" y="1005"/>
      <point x="767" y="1081"/>
      <point x="886" y="1081" type="curve" smooth="yes"/>
      <point x="1002" y="1081"/>
      <point x="1042" y="999"/>
      <point x="1042" y="910" type="curve" smooth="yes"/>
      <point x="1042" y="816"/>
      <point x="1002" y="779"/>
      <point x="889" y="746" type="curve" smooth="yes"/>
    </contour>
  </outline>
</glyph>
<glyph name="Dcroat" format="1">
  <advance width="1069"/>
  <unicode hex="0110"/>
  <outline>
    <contour>
      <point x="304" y="117" type="line"/>
      <point x="304" y="821" type="line"/>
      <point x="470" y="821" type="line"/>
      <point x="470" y="917" type="line"/>
      <point x="304" y="917" type="line"/>
      <point x="304" y="1538" type="line"/>
      <point x="507" y="1538" type="line" smooth="yes"/>
      <point x="756" y="1538"/>
      <point x="800" y="1403"/>
      <point x="800" y="1155" type="curve" smooth="yes"/>
      <point x="800" y="536" type="line" smooth="yes"/>
      <point x="800" y="294"/>
      <point x="774" y="117"/>
      <point x="512" y="117" type="curve" smooth="yes"/>
    </contour>
    <contour>
      <point x="147" y="0" type="line"/>
      <point x="522" y="0" type="line" smooth="yes"/>
      <point x="853" y="0"/>
      <point x="958" y="201"/>
      <point x="958" y="512" type="curve" smooth="yes"/>
      <point x="958" y="1171" type="line" smooth="yes"/>
      <point x="958" y="1463"/>
      <point x="854" y="1658"/>
      <point x="510" y="1658" type="curve" smooth="yes"/>
      <point x="147" y="1658" type="line"/>
      <point x="147" y="917" type="line"/>
      <point x="25" y="917" type="line"/>
      <point x="25" y="821" type="line"/>
      <point x="147" y="821" type="line"/>
    </contour>
  </outline>
</glyph>
<glyph name="florin" format="1">
  <advance width="766"/>
  <unicode hex="0192"/>
  <outline>
    <contour>
      <point x="106" y="-270" type="curve" smooth="yes"/>
      <point x="301" y="-270"/>
      <point x="338" y="-150"/>
      <point x="359" y="25" type="curve" smooth="yes"/>
      <point x="500" y="1075" type="line"/>
      <point x="688" y="1075" type="line"/>
      <point x="688" y="1184" type="line"/>
      <point x="513" y="1184" type="line"/>
      <point x="532" y="1323" type="line" smooth="yes"/>
      <point x="548" y="1437"/>
      <point x="569" y="1493"/>
      <point x="659" y="1493" type="curve" smooth="yes"/>
      <point x="684" y="1493"/>
      <point x="716" y="1486"/>
      <point x="741" y="1482" type="curve"/>
      <point x="754" y="1595" type="line"/>
      <point x="714" y="1603"/>
      <point x="677" y="1608"/>
      <point x="635" y="1608" type="curve" smooth="yes"/>
      <point x="441" y="1608"/>
      <point x="402" y="1487"/>
      <point x="382" y="1314" type="curve" smooth="yes"/>
      <point x="363" y="1184" type="line"/>
      <point x="201" y="1184" type="line"/>
      <point x="201" y="1075" type="line"/>
      <point x="350" y="1075" type="line"/>
      <point x="209" y="16" type="line" smooth="yes"/>
      <point x="193" y="-99"/>
      <point x="172" y="-155"/>
      <point x="82" y="-155" type="curve" smooth="yes"/>
      <point x="58" y="-155"/>
      <point x="24" y="-149"/>
      <point x="-1" y="-144" type="curve"/>
      <point x="-14" y="-257" type="line"/>
      <point x="27" y="-265"/>
      <point x="64" y="-270"/>
    </contour>
  </outline>
</glyph>
<glyph name="gravecomb" format="1">
  <advance width="0"/>
  <unicode hex="0300"/>
  <outline>
    <contour>
      <point x="94" y="1258" type="line"/>
      <point x="171" y="1258" type="line"/>
      <point x="57" y="1658" type="line"/>
      <point x="-95" y="1658" type="line"/>
    </contour>
  </outline>
</glyph>
<glyph name="uni0302" format="1">
  <advance width="673"/>
  <unicode hex="0302"/>
  <outline>
    <contour>
      <point x="75" y="1295" type="line"/>
      <point x="186" y="1295" type="line"/>
      <point x="335" y="1584" type="line"/>
      <point x="485" y="1295" type="line"/>
      <point x="594" y="1295" type="line"/>
      <point x="420" y="1658" type="line"/>
      <point x="252" y="1658" type="line"/>
    </contour>
  </outline>
</glyph>
<glyph name="uni0308" format="1">
  <advance width="414"/>
  <unicode hex="0308"/>
  <outline>
    <contour>
      <point x="-38" y="1477" type="line"/>
      <point x="116" y="1477" type="line"/>
      <point x="116" y="1658" type="line"/>
      <point x="-38" y="1658" type="line"/>
    </contour>
    <contour>
      <point x="298" y="1477" type="line"/>
      <point x="452" y="1477" type="line"/>
      <point x="452" y="1658" type="line"/>
      <point x="298" y="1658" type="line"/>
    </contour>
  </outline>
</glyph>
<glyph name="uni0311" format="1">
  <advance width="727"/>
  <unicode hex="0311"/>
  <outline>
    <contour>
      <point x="118" y="1402" type="curve"/>
      <point x="214" y="1402" type="line"/>
      <point x="219" y="1524"/>
      <point x="276" y="1568"/>
      <point x="368" y="1568" type="curve" smooth="yes"/>
      <point x="459" y="1568"/>
      <point x="515" y="1524"/>
      <point x="517" y="1402" type="curve"/>
      <point x="613" y="1402" type="line"/>
      <point x="608" y="1563"/>
      <point x="534" y="1658"/>
      <point x="367" y="1658" type="curve" smooth="yes"/>
      <point x="199" y="1658"/>
      <point x="123" y="1564"/>
    </contour>
  </outline>
</glyph>
<glyph name="uni0326" format="1">
  <advance width="402"/>
  <unicode hex="0326"/>
  <outline>
    <contour>
      <point x="147" y="-485" type="line"/>
      <point x="258" y="-455"/>
      <point x="283" y="-375"/>
      <point x="284" y="-241" type="curve" smooth="yes"/>
      <point x="285" y="-81" type="line"/>
      <point x="118" y="-81" type="line"/>
      <point x="118" y="-262" type="line"/>
      <point x="205" y="-262" type="line"/>
      <point x="205" y="-319"/>
      <point x="186" y="-386"/>
      <point x="110" y="-417" type="curve"/>
    </contour>
  </outline>
</glyph>
<glyph name="afii10060" format="1">
  <advance width="945"/>
  <unicode hex="040B"/>
  <outline>
    <contour>
      <point x="223" y="0" type="line"/>
      <point x="377" y="0" type="line"/>
      <point x="377" y="800" type="line"/>
      <point x="415" y="835"/>
      <point x="484" y="879"/>
      <point x="566" y="879" type="curve" smooth="yes"/>
      <point x="642" y="879"/>
      <point x="688" y="843"/>
      <point x="688" y="744" type="curve" smooth="yes"/>
      <point x="688" y="0" type="line"/>
      <point x="839" y="0" type="line"/>
      <point x="839" y="769" type="line" smooth="yes"/>
      <point x="839" y="915"/>
      <point x="727" y="974"/>
      <point x="608" y="974" type="curve" smooth="yes"/>
      <point x="490" y="974"/>
      <point x="406" y="922"/>
      <point x="377" y="896" type="curve"/>
      <point x="377" y="1538" type="line"/>
      <point x="688" y="1538" type="line"/>
      <point x="688" y="1658" type="line"/>
      <point x="-76" y="1658" type="line"/>
      <point x="-76" y="1538" type="line"/>
      <point x="223" y="1538" type="line"/>
    </contour>
  </outline>
</glyph>
<glyph name="afii10145" format="1">
  <advance width="1074"/>
  <unicode hex="040F"/>
  <outline>
    <contour>
      <point x="490" y="-285" type="line"/>
      <point x="609" y="-285" type="line"/>
      <point x="621" y="0" type="line"/>
      <point x="930" y="0" type="line"/>
      <point x="930" y="1658" type="line"/>
      <point x="773" y="1658" type="line"/>
      <point x="773" y="115" type="line"/>
      <point x="301" y="115" type="line"/>
      <point x="301" y="1658" type="line"/>
      <point x="144" y="1658" type="line"/>
      <point x="144" y="0" type="line"/>
      <point x="477" y="0" type="line"/>
    </contour>
  </outline>
</glyph>
<glyph name="afii10018" format="1">
  <advance width="981"/>
  <unicode hex="0411"/>
  <outline>
    <contour>
      <point x="144" y="0" type="line"/>
      <point x="441" y="0" type="line" smooth="yes"/>
      <point x="776" y="0"/>
      <point x="911" y="176"/>
      <point x="911" y="476" type="curve" smooth="yes"/>
      <point x="911" y="822"/>
      <point x="759" y="963"/>
      <point x="434" y="963" type="curve" smooth="yes"/>
      <point x="301" y="963" type="line"/>
      <point x="301" y="1542" type="line"/>
      <point x="809" y="1542" type="line"/>
      <point x="809" y="1658" type="line"/>
      <point x="144" y="1658" type="line"/>
    </contour>
    <contour>
      <point x="301" y="120" type="line"/>
      <point x="301" y="843" type="line"/>
      <point x="440" y="843" type="line" smooth="yes"/>
      <point x="680" y="843"/>
      <point x="758" y="717"/>
      <point x="758" y="478" type="curve" smooth="yes"/>
      <point x="758" y="222"/>
      <point x="671" y="120"/>
      <point x="443" y="120" type="curve" smooth="yes"/>
    </contour>
  </outline>
</glyph>
<glyph name="afii10024" format="1">
  <advance width="1306"/>
  <unicode hex="0416"/>
  <outline>
    <contour>
      <point x="30" y="0" type="line"/>
      <point x="184" y="0" type="line"/>
      <point x="565" y="839" type="line"/>
      <point x="584" y="839" type="line"/>
      <point x="584" y="0" type="line"/>
      <point x="722" y="0" type="line"/>
      <point x="722" y="839" type="line"/>
      <point x="741" y="839" type="line"/>
      <point x="1122" y="0" type="line"/>
      <point x="1276" y="0" type="line"/>
      <point x="864" y="859" type="line"/>
      <point x="1237" y="1658" type="line"/>
      <point x="1086" y="1658" type="line"/>
      <point x="736" y="868" type="line"/>
      <point x="722" y="868" type="line"/>
      <point x="722" y="1658" type="line"/>
      <point x="584" y="1658" type="line"/>
      <point x="584" y="868" type="line"/>
      <point x="570" y="868" type="line"/>
      <point x="220" y="1658" type="line"/>
      <point x="69" y="1658" type="line"/>
      <point x="442" y="859" type="line"/>
    </contour>
  </outline>
</glyph>
<glyph name="afii10037" format="1">
  <advance width="926"/>
  <unicode hex="0423"/>
  <outline>
    <contour>
      <point x="119" y="-213" type="line"/>
      <point x="508" y="-228"/>
      <point x="504" y="-128"/>
      <point x="573" y="202" type="curve" smooth="yes"/>
      <point x="890" y="1658" type="line"/>
      <point x="737" y="1658" type="line"/>
      <point x="586" y="916" type="line"/>
      <point x="489" y="381" type="line"/>
      <point x="379" y="914" type="line"/>
      <point x="208" y="1658" type="line"/>
      <point x="57" y="1658" type="line"/>
      <point x="411" y="209" type="line" smooth="yes"/>
      <point x="406" y="-37"/>
      <point x="394" y="-105"/>
      <point x="120" y="-91" type="curve"/>
    </contour>
  </outline>
</glyph>
<glyph name="afii10041" format="1">
  <advance width="1059"/>
  <unicode hex="0427"/>
  <outline>
    <contour>
      <point x="758" y="0" type="line"/>
      <point x="915" y="0" type="line"/>
      <point x="915" y="1658" type="line"/>
      <point x="758" y="1658" type="line"/>
      <point x="758" y="875" type="line"/>
      <point x="692" y="855"/>
      <point x="615" y="843"/>
      <point x="541" y="843" type="curve" smooth="yes"/>
      <point x="365" y="843"/>
      <point x="253" y="903"/>
      <point x="253" y="1103" type="curve" smooth="yes"/>
      <point x="253" y="1658" type="line"/>
      <point x="108" y="1658" type="line"/>
      <point x="108" y="1102" type="line" smooth="yes"/>
      <point x="108" y="843"/>
      <point x="259" y="735"/>
      <point x="514" y="735" type="curve" smooth="yes"/>
      <point x="587" y="735"/>
      <point x="669" y="746"/>
      <point x="758" y="768" type="curve"/>
    </contour>
  </outline>
</glyph>
<glyph name="afii10045" format="1">
  <advance width="1416"/>
  <unicode hex="042B"/>
  <outline>
    <contour>
      <point x="144" y="0" type="line"/>
      <point x="448" y="0" type="line" smooth="yes"/>
      <point x="783" y="0"/>
      <point x="918" y="176"/>
      <point x="918" y="476" type="curve" smooth="yes"/>
      <point x="918" y="822"/>
      <point x="766" y="963"/>
      <point x="441" y="963" type="curve" smooth="yes"/>
      <point x="301" y="963" type="line"/>
      <point x="301" y="1658" type="line"/>
      <point x="144" y="1658" type="line"/>
    </contour>
    <contour>
      <point x="301" y="120" type="line"/>
      <point x="301" y="843" type="line"/>
      <point x="447" y="843" type="line" smooth="yes"/>
      <point x="687" y="843"/>
      <point x="765" y="717"/>
      <point x="765" y="478" type="curve" smooth="yes"/>
      <point x="765" y="222"/>
      <point x="678" y="120"/>
      <point x="450" y="120" type="curve" smooth="yes"/>
    </contour>
    <contour>
      <point x="1115" y="0" type="line"/>
      <point x="1272" y="0" type="line"/>
      <point x="1272" y="1658" type="line"/>
      <point x="1115" y="1658" type="line"/>
    </contour>
  </outline>
</glyph>
<glyph name="afii10048" format="1">
  <advance width="1408"/>
  <unicode hex="042E"/>
  <outline>
    <contour>
      <point x="885" y="-21" type="curve" smooth="yes"/>
      <point x="1203" y="-21"/>
      <point x="1297" y="192"/>
      <point x="1297" y="491" type="curve" smooth="yes"/>
      <point x="1297" y="1173" type="line" smooth="yes"/>
      <point x="1297" y="1471"/>
      <point x="1197" y="1676"/>
      <point x="885" y="1676" type="curve" smooth="yes"/>
      <point x="572" y="1676"/>
      <point x="473" y="1476"/>
      <point x="473" y="1174" type="curve" smooth="yes"/>
      <point x="473" y="902" type="line"/>
      <point x="293" y="902" type="line"/>
      <point x="293" y="1658" type="line"/>
      <point x="144" y="1658" type="line"/>
      <point x="144" y="0" type="line"/>
      <point x="293" y="0" type="line"/>
      <point x="293" y="780" type="line"/>
      <point x="473" y="780" type="line"/>
      <point x="473" y="493" type="line" smooth="yes"/>
      <point x="473" y="192"/>
      <point x="565" y="-21"/>
    </contour>
    <contour>
      <point x="887" y="105" type="curve" smooth="yes"/>
      <point x="670" y="105"/>
      <point x="617" y="246"/>
      <point x="617" y="456" type="curve" smooth="yes"/>
      <point x="617" y="1206" type="line" smooth="yes"/>
      <point x="617" y="1416"/>
      <point x="671" y="1552"/>
      <point x="885" y="1552" type="curve" smooth="yes"/>
      <point x="1099" y="1552"/>
      <point x="1153" y="1416"/>
      <point x="1153" y="1206" type="curve" smooth="yes"/>
      <point x="1153" y="456" type="line" smooth="yes"/>
      <point x="1153" y="246"/>
      <point x="1100" y="105"/>
    </contour>
  </outline>
</glyph>
<glyph name="afii10049" format="1">
  <advance width="1093"/>
  <unicode hex="042F"/>
  <outline>
    <contour>
      <point x="40" y="0" type="line"/>
      <point x="214" y="0" type="line"/>
      <point x="513" y="714" type="line"/>
      <point x="529" y="712"/>
      <point x="566" y="710"/>
      <point x="584" y="710" type="curve"/>
      <point x="793" y="710" type="line"/>
      <point x="793" y="0" type="line"/>
      <point x="950" y="0" type="line"/>
      <point x="950" y="1658" type="line"/>
      <point x="598" y="1658" type="line" smooth="yes"/>
      <point x="247" y="1658"/>
      <point x="138" y="1457"/>
      <point x="138" y="1210" type="curve" smooth="yes"/>
      <point x="138" y="984"/>
      <point x="217" y="815"/>
      <point x="376" y="752" type="curve"/>
    </contour>
    <contour>
      <point x="609" y="826" type="line"/>
      <point x="375" y="826"/>
      <point x="289" y="954"/>
      <point x="289" y="1210" type="curve" smooth="yes"/>
      <point x="289" y="1448"/>
      <point x="400" y="1542"/>
      <point x="605" y="1542" type="curve" smooth="yes"/>
      <point x="793" y="1542" type="line"/>
      <point x="793" y="826" type="line"/>
    </contour>
  </outline>
</glyph>
<glyph name="afii10073" format="1">
  <advance width="746"/>
  <unicode hex="0437"/>
  <outline>
    <contour>
      <point x="376" y="-20" type="curve" smooth="yes"/>
      <point x="572" y="-22"/>
      <point x="678" y="105"/>
      <point x="676" y="320" type="curve" smooth="yes"/>
      <point x="674" y="531"/>
      <point x="575" y="588"/>
      <point x="472" y="617" type="curve"/>
      <point x="573" y="632"/>
      <point x="670" y="706"/>
      <point x="673" y="880" type="curve" smooth="yes"/>
      <point x="676" y="1048"/>
      <point x="587" y="1202"/>
      <point x="380" y="1202" type="curve" smooth="yes"/>
      <point x="189" y="1202"/>
      <point x="72" y="1105"/>
      <point x="72" y="874" type="curve"/>
      <point x="204" y="874" type="line"/>
      <point x="204" y="1028"/>
      <point x="271" y="1090"/>
      <point x="376" y="1090" type="curve" smooth="yes"/>
      <point x="484" y="1090"/>
      <point x="543" y="999"/>
      <point x="538" y="872" type="curve" smooth="yes"/>
      <point x="534" y="742"/>
      <point x="483" y="670"/>
      <point x="292" y="670" type="curve"/>
      <point x="292" y="559" type="line"/>
      <point x="475" y="559"/>
      <point x="538" y="488"/>
      <point x="540" y="337" type="curve" smooth="yes"/>
      <point x="543" y="183"/>
      <point x="499" y="88"/>
      <point x="378" y="89" type="curve" smooth="yes"/>
      <point x="265" y="90"/>
      <point x="213" y="172"/>
      <point x="213" y="333" type="curve"/>
      <point x="80" y="333" type="line"/>
      <point x="80" y="100"/>
      <point x="178" y="-19"/>
    </contour>
  </outline>
</glyph>
<glyph name="afii10080" format="1">
  <advance width="816"/>
  <unicode hex="043E"/>
  <outline>
    <contour>
      <point x="408" y="94" type="curve" smooth="yes"/>
      <point x="253" y="94"/>
      <point x="242" y="228"/>
      <point x="242" y="420" type="curve" smooth="yes"/>
      <point x="242" y="764" type="line" smooth="yes"/>
      <point x="242" y="956"/>
      <point x="253" y="1090"/>
      <point x="408" y="1090" type="curve" smooth="yes"/>
      <point x="562" y="1090"/>
      <point x="573" y="956"/>
      <point x="573" y="764" type="curve" smooth="yes"/>
      <point x="573" y="420" type="line" smooth="yes"/>
      <point x="573" y="228"/>
      <point x="562" y="94"/>
    </contour>
    <contour>
      <point x="408" y="-19" type="curve" smooth="yes"/>
      <point x="654" y="-19"/>
      <point x="724" y="142"/>
      <point x="724" y="428" type="curve" smooth="yes"/>
      <point x="724" y="756" type="line" smooth="yes"/>
      <point x="724" y="1042"/>
      <point x="654" y="1202"/>
      <point x="408" y="1202" type="curve" smooth="yes"/>
      <point x="162" y="1202"/>
      <point x="92" y="1040"/>
      <point x="92" y="756" type="curve" smooth="yes"/>
      <point x="92" y="428" type="line" smooth="yes"/>
      <point x="92" y="142"/>
      <point x="162" y="-19"/>
    </contour>
  </outline>
</glyph>
<glyph name="afii10088" format="1">
  <advance width="898"/>
  <unicode hex="0446"/>
  <outline>
    <contour>
      <point x="762" y="-285" type="line"/>
      <point x="873" y="-285" type="line"/>
      <point x="873" y="106" type="line"/>
      <point x="755" y="106" type="line"/>
      <point x="755" y="1184" type="line"/>
      <point x="605" y="1184" type="line"/>
      <point x="605" y="106" type="line"/>
      <point x="264" y="106" type="line"/>
      <point x="264" y="1184" type="line"/>
      <point x="114" y="1184" type="line"/>
      <point x="114" y="0" type="line"/>
      <point x="749" y="0" type="line"/>
    </contour>
  </outline>
</glyph>
<glyph name="afii10090" format="1">
  <advance width="1185"/>
  <unicode hex="0448"/>
  <outline>
    <contour>
      <point x="114" y="0" type="line"/>
      <point x="1071" y="0" type="line"/>
      <point x="1071" y="1184" type="line"/>
      <point x="925" y="1184" type="line"/>
      <point x="925" y="106" type="line"/>
      <point x="666" y="106" type="line"/>
      <point x="666" y="1184" type="line"/>
      <point x="520" y="1184" type="line"/>
      <point x="520" y="106" type="line"/>
      <point x="260" y="106" type="line"/>
      <point x="260" y="1184" type="line"/>
      <point x="114" y="1184" type="line"/>
    </contour>
  </outline>
</glyph>
<glyph name="afii10095" format="1">
  <advance width="811"/>
  <unicode hex="044D"/>
  <outline>
    <contour>
      <point x="404" y="-19" type="curve" smooth="yes"/>
      <point x="656" y="-19"/>
      <point x="719" y="128"/>
      <point x="719" y="459" type="curve" smooth="yes"/>
      <point x="719" y="725" type="line" smooth="yes"/>
      <point x="719" y="1002"/>
      <point x="683" y="1192"/>
      <point x="407" y="1192" type="curve" smooth="yes"/>
      <point x="150" y="1192"/>
      <point x="101" y="1029"/>
      <point x="101" y="817" type="curve" smooth="yes"/>
      <point x="101" y="784" type="line"/>
      <point x="239" y="784" type="line"/>
      <point x="239" y="824" type="line" smooth="yes"/>
      <point x="239" y="986"/>
      <point x="264" y="1080"/>
      <point x="405" y="1080" type="curve" smooth="yes"/>
      <point x="539" y="1080"/>
      <point x="569" y="1004"/>
      <point x="569" y="756" type="curve" smooth="yes"/>
      <point x="569" y="641" type="line"/>
      <point x="257" y="641" type="line"/>
      <point x="257" y="550" type="line"/>
      <point x="569" y="550" type="line"/>
      <point x="569" y="434" type="line" smooth="yes"/>
      <point x="569" y="187"/>
      <point x="548" y="94"/>
      <point x="406" y="94" type="curve" smooth="yes"/>
      <point x="289" y="94"/>
      <point x="239" y="152"/>
      <point x="239" y="341" type="curve" smooth="yes"/>
      <point x="239" y="367" type="line"/>
      <point x="101" y="367" type="line"/>
      <point x="101" y="341" type="line" smooth="yes"/>
      <point x="101" y="124"/>
      <point x="153" y="-19"/>
    </contour>
  </outline>
</glyph>
<glyph name="afii10106" format="1">
  <advance width="1282"/>
  <unicode hex="0459"/>
  <outline>
    <contour>
      <point x="9" y="-10" type="line"/>
      <point x="25" y="-10" type="line" smooth="yes"/>
      <point x="230" y="-10"/>
      <point x="330" y="46"/>
      <point x="367" y="586" type="curve" smooth="yes"/>
      <point x="403" y="1068" type="line"/>
      <point x="662" y="1068" type="line"/>
      <point x="662" y="0" type="line"/>
      <point x="855" y="0" type="line" smooth="yes"/>
      <point x="1171" y="3"/>
      <point x="1235" y="130"/>
      <point x="1235" y="328" type="curve" smooth="yes"/>
      <point x="1235" y="535"/>
      <point x="1173" y="660"/>
      <point x="868" y="660" type="curve" smooth="yes"/>
      <point x="812" y="660" type="line"/>
      <point x="812" y="1184" type="line"/>
      <point x="272" y="1184" type="line"/>
      <point x="231" y="606" type="line" smooth="yes"/>
      <point x="203" y="210"/>
      <point x="165" y="104"/>
      <point x="9" y="104" type="curve"/>
    </contour>
    <contour>
      <point x="812" y="95" type="line"/>
      <point x="812" y="565" type="line"/>
      <point x="857" y="565" type="line" smooth="yes"/>
      <point x="1073" y="565"/>
      <point x="1097" y="472"/>
      <point x="1097" y="329" type="curve" smooth="yes"/>
      <point x="1097" y="178"/>
      <point x="1066" y="95"/>
      <point x="857" y="95" type="curve" smooth="yes"/>
    </contour>
  </outline>
</glyph>
<glyph name="afii10098" format="1">
  <advance width="597"/>
  <unicode hex="0491"/>
  <outline>
    <contour>
      <point x="123" y="0" type="line"/>
      <point x="273" y="0" type="line"/>
      <point x="273" y="1072" type="line"/>
      <point x="560" y="1072" type="line"/>
      <point x="560" y="1350" type="line"/>
      <point x="472" y="1350" type="line"/>
      <point x="472" y="1184" type="line"/>
      <point x="123" y="1184" type="line"/>
    </contour>
  </outline>
</glyph>
<glyph name="quotesinglbase" format="1">
  <advance width="572"/>
  <unicode hex="201A"/>
  <outline>
    <contour>
      <point x="250" y="-242" type="line"/>
      <point x="366" y="-212"/>
      <point x="400" y="-116"/>
      <point x="400" y="55" type="curve" smooth="yes"/>
      <point x="400" y="225" type="line"/>
      <point x="227" y="225" type="line"/>
      <point x="227" y="24" type="line"/>
      <point x="309" y="24" type="line"/>
      <point x="309" y="-103"/>
      <point x="292" y="-158"/>
      <point x="216" y="-190" type="curve"/>
    </contour>
  </outline>
</glyph>
<glyph name="quotedblleft" format="1">
  <advance width="775"/>
  <unicode hex="201C"/>
  <outline>
    <contour>
      <point x="123" y="1250" type="line"/>
      <point x="296" y="1250" type="line"/>
      <point x="296" y="1451" type="line"/>
      <point x="214" y="1451" type="line"/>
      <point x="214" y="1577"/>
      <point x="231" y="1633"/>
      <point x="307" y="1664" type="curve"/>
      <point x="273" y="1717" type="line"/>
      <point x="157" y="1686"/>
      <point x="123" y="1591"/>
      <point x="123" y="1420" type="curve" smooth="yes"/>
    </contour>
    <contour>
      <point x="449" y="1250" type="line"/>
      <point x="622" y="1250" type="line"/>
      <point x="622" y="1451" type="line"/>
      <point x="540" y="1451" type="line"/>
      <point x="540" y="1577"/>
      <point x="557" y="1633"/>
      <point x="633" y="1664" type="curve"/>
      <point x="599" y="1717" type="line"/>
      <point x="483" y="1686"/>
      <point x="449" y="1591"/>
      <point x="449" y="1420" type="curve" smooth="yes"/>
    </contour>
  </outline>
</glyph>
<glyph name="guilsinglright" format="1">
  <advance width="648"/>
  <unicode hex="203A"/>
  <outline>
    <contour>
      <point x="152" y="236" type="line"/>
      <point x="533" y="677" type="line"/>
      <point x="533" y="744" type="line"/>
      <point x="152" y="1186" type="line"/>
      <point x="152" y="995" type="line"/>
      <point x="408" y="710" type="line"/>
      <point x="152" y="426" type="line"/>
    </contour>
  </outline>
</glyph>
<glyph name="fraction" format="1">
  <advance width="447"/>
  <unicode hex="2044"/>
  <outline>
    <contour>
      <point x="0" y="0" type="line"/>
      <point x="130" y="0" type="line"/>
      <point x="447" y="1658" type="line"/>
      <point x="319" y="1658" type="line"/>
    </contour>
  </outline>
</glyph>
<glyph name="minus" format="1">
  <advance width="740"/>
  <unicode hex="2212"/>
  <outline>
    <contour>
      <point x="78" y="744" type="line"/>
      <point x="662" y="744" type="line"/>
      <point x="662" y="841" type="line"/>
      <point x="78" y="841" type="line"/>
    </contour>
  </outline>
</glyph>
<glyph name="greaterequal" format="1">
  <advance width="739"/>
  <unicode hex="2265"/>
  <outline>
    <contour>
      <point x="90" y="214" type="line"/>
      <point x="659" y="643" type="line"/>
      <point x="659" y="791" type="line"/>
      <point x="90" y="1210" type="line"/>
      <point x="90" y="1055" type="line"/>
      <point x="543" y="718" type="line"/>
      <point x="90" y="369" type="line"/>
    </contour>
    <contour>
      <point x="90" y="0" type="line"/>
      <point x="674" y="0" type="line"/>
      <point x="674" y="97" type="line"/>
      <point x="90" y="97" type="line"/>
    </contour>
  </outline>
</glyph>
<glyph name="uniFB02" format="1">
  <advance width="964"/>
  <unicode hex="FB02"/>
  <outline>
    <contour>
      <point x="339" y="1075" type="line"/>
      <point x="531" y="1075" type="line"/>
      <point x="531" y="1184" type="line"/>
      <point x="339" y="1184" type="line"/>
      <point x="339" y="1184"/>
      <point x="339" y="1304"/>
      <point x="339" y="1304" type="curve" smooth="yes"/>
      <point x="339" y="1428"/>
      <point x="344" y="1521"/>
      <point x="542" y="1521" type="curve" smooth="yes"/>
      <point x="582" y="1521"/>
      <point x="628" y="1517"/>
      <point x="685" y="1510" type="curve"/>
      <point x="685" y="0" type="line"/>
      <point x="835" y="0" type="line"/>
      <point x="835" y="1595" type="line"/>
      <point x="708" y="1622"/>
      <point x="606" y="1634"/>
      <point x="524" y="1634" type="curve" smooth="yes"/>
      <point x="204" y="1634"/>
      <point x="190" y="1455"/>
      <point x="190" y="1307" type="curve" smooth="yes"/>
      <point x="190" y="1184" type="line"/>
      <point x="36" y="1184" type="line"/>
      <point x="36" y="1075" type="line"/>
      <point x="190" y="1075" type="line"/>
      <point x="190" y="0" type="line"/>
      <point x="339" y="0" type="line"/>
    </contour>
  </outline>
</glyph>
